<?xml version="1.0" encoding="utf-8"?>
<!-- Generator: Adobe Illustrator 24.3.0, SVG Export Plug-In . SVG Version: 6.00 Build 0)  -->
<svg version="1.1" id="Ebene_1" xmlns="http://www.w3.org/2000/svg" xmlns:xlink="http://www.w3.org/1999/xlink" x="0px" y="0px"
	 viewBox="0 0 142 30" style="enable-background:new 0 0 142 30;" xml:space="preserve">
<style type="text/css">
	.st0{fill:#FFFFFF;}
	.st1{fill:#471AFF;}
</style>
<path class="st0" d="M0.4,29h8.4V1H0.4V29z M46.5,1H36.2l-6,18.1L24.3,1H13.7v28h8.1V11.6L27.2,29h6.2l5.1-17.4V29h8.1V1z M66,19
	h4.6c-0.4,2.2-2.2,4-5.3,4c-4.6,0-6.8-3.4-6.8-7.8c0-4,1.8-7.8,6.3-7.8c2.9,0,4.5,1.8,4.8,3.4h9.2C78.3,5,73.1,0.2,64.9,0.2
	c-9.4,0-14.9,7.1-14.9,14.8c0,8,5.3,14.8,14.9,14.8c8.2,0,13.1-4.4,14.1-10.8h2.7v-5.5H66V19z M105.9,21.9V1h-8.3v28h15.6v-7.1
	H105.9z M141.9,1h-9.3l-4.2,10l-4.5-10h-9.8l9.4,18.1l-4.8,9.9h9.4L141.9,1z"/>
<path class="st1" d="M83.8,24.7c0,2.6,2.1,4.8,4.8,4.8c2.8,0,4.9-2.2,4.9-4.8s-2.1-4.8-4.9-4.8C85.9,19.9,83.8,22,83.8,24.7z"/>
</svg>
